<svg width="108" height="152" viewBox="0 0 108 152" fill="none" xmlns="http://www.w3.org/2000/svg">
<rect width="108" height="152" fill="#DFE5DE"/>
<rect width="108" height="34" fill="#E7E24E"/>
<path d="M16.0567 49.6812H13.2067V53H11.3442V44.75H13.2067V48.05H16.0567V44.75H17.9129V53H16.0567V49.6812ZM22.1276 44.75H23.9838L27.2401 53H25.2463L24.6463 51.3437H21.4713L20.8651 53H18.8651L22.1276 44.75ZM22.0963 49.7062H24.0276L23.0713 47H23.0526L22.0963 49.7062ZM36.8124 44.75V53H34.9499V48.1437L35.0311 46.7625L34.7124 48.3437L33.3249 52.3375H31.4936L30.1124 48.3437L29.7999 46.7625L29.8811 48.1437V53H28.0124V44.75H30.6374L32.2999 50.2562L32.4124 50.9125L32.5249 50.2562L34.1874 44.75H36.8124ZM47.2157 44.75V53H45.3532V48.1437L45.4344 46.7625L45.1157 48.3437L43.7282 52.3375H41.8969L40.5157 48.3437L40.2032 46.7625L40.2844 48.1437V53H38.4157V44.75H41.0407L42.7032 50.2562L42.8157 50.9125L42.9282 50.2562L44.5907 44.75H47.2157ZM48.8315 44.75H54.1002V46.3875H50.694V48.0687H54.069V49.6562H50.694V51.3625H54.1002V53H48.8315V44.75ZM55.5962 44.75H58.9587C59.4379 44.75 59.865 44.85 60.24 45.05C60.615 45.25 60.9108 45.5396 61.1275 45.9187C61.3483 46.2937 61.4587 46.7417 61.4587 47.2625C61.4587 47.7833 61.365 48.2104 61.1775 48.5437C60.9942 48.8729 60.7733 49.1208 60.515 49.2875C60.2567 49.45 60.0171 49.5479 59.7962 49.5812L61.8025 53H59.7025L57.915 49.725H57.465V53H55.5962V44.75ZM57.465 48.4312H58.29C58.6233 48.4312 58.915 48.35 59.165 48.1875C59.415 48.025 59.54 47.7375 59.54 47.325C59.54 46.9125 59.4171 46.6271 59.1712 46.4687C58.9254 46.3062 58.6358 46.225 58.3025 46.225H57.465V48.4312ZM66.1625 44.6C66.675 44.6 67.1229 44.6562 67.5062 44.7687C67.8895 44.8812 68.1979 45 68.4312 45.125C68.6645 45.25 68.8062 45.3333 68.8562 45.375L67.9562 46.8812C67.8895 46.8312 67.775 46.7583 67.6125 46.6625C67.4541 46.5667 67.2645 46.4812 67.0437 46.4062C66.827 46.3312 66.6 46.2937 66.3625 46.2937C66.0416 46.2937 65.7812 46.3521 65.5812 46.4687C65.3854 46.5812 65.2875 46.75 65.2875 46.975C65.2875 47.1292 65.3395 47.2687 65.4437 47.3937C65.552 47.5146 65.7145 47.6312 65.9312 47.7437C66.152 47.8521 66.4312 47.9708 66.7687 48.1C67.077 48.2125 67.3666 48.3458 67.6375 48.5C67.9083 48.6542 68.1458 48.8375 68.35 49.05C68.5583 49.2583 68.7229 49.5 68.8437 49.775C68.9645 50.05 69.025 50.3625 69.025 50.7125C69.025 51.1292 68.9395 51.4917 68.7687 51.8C68.5979 52.1042 68.3645 52.3562 68.0687 52.5562C67.777 52.7562 67.4437 52.9042 67.0687 53C66.6979 53.1 66.3125 53.15 65.9125 53.15C65.3458 53.15 64.8375 53.0854 64.3875 52.9562C63.9416 52.8271 63.5812 52.6875 63.3062 52.5375C63.0312 52.3875 62.8666 52.2875 62.8125 52.2375L63.7437 50.6687C63.7937 50.7062 63.8895 50.7667 64.0312 50.85C64.177 50.9333 64.3541 51.0208 64.5625 51.1125C64.7708 51.2 64.9916 51.275 65.225 51.3375C65.4625 51.4 65.6958 51.4312 65.925 51.4312C66.3083 51.4312 66.5958 51.3583 66.7875 51.2125C66.9791 51.0625 67.075 50.8667 67.075 50.625C67.075 50.4458 67.0145 50.2854 66.8937 50.1437C66.7729 50.0021 66.5916 49.8687 66.35 49.7437C66.1083 49.6146 65.8062 49.4792 65.4437 49.3375C65.0812 49.1917 64.7416 49.0146 64.425 48.8062C64.1125 48.5979 63.8583 48.3375 63.6625 48.025C63.4666 47.7125 63.3687 47.325 63.3687 46.8625C63.3687 46.4 63.4979 46 63.7562 45.6625C64.0187 45.3208 64.3625 45.0583 64.7875 44.875C65.2166 44.6917 65.675 44.6 66.1625 44.6ZM79.0633 44.75V53H77.2008V48.1437L77.2821 46.7625L76.9633 48.3437L75.5758 52.3375H73.7446L72.3633 48.3437L72.0508 46.7625L72.1321 48.1437V53H70.2633V44.75H72.8883L74.5508 50.2562L74.6633 50.9125L74.7758 50.2562L76.4383 44.75H79.0633ZM80.7479 44.75H82.6167V53H80.7479V44.75ZM85.6253 46.3875H83.6566V44.75H89.4566V46.3875H87.4941V53H85.6253V46.3875ZM95.2974 49.6812H92.4474V53H90.5849V44.75H92.4474V48.05H95.2974V44.75H97.1537V53H95.2974V49.6812ZM32.0538 62.6812H29.2038V66H27.3413V57.75H29.2038V61.05H32.0538V57.75H33.91V66H32.0538V62.6812ZM37.1309 61.8687C37.1309 62.3396 37.2267 62.7667 37.4184 63.15C37.6142 63.5292 37.883 63.8312 38.2247 64.0562C38.5705 64.2812 38.9705 64.3938 39.4247 64.3938C39.8788 64.3938 40.2767 64.2812 40.6184 64.0562C40.9642 63.8312 41.233 63.5292 41.4247 63.15C41.6205 62.7667 41.7184 62.3396 41.7184 61.8687C41.7184 61.3979 41.6205 60.9729 41.4247 60.5937C41.233 60.2146 40.9642 59.9125 40.6184 59.6875C40.2767 59.4583 39.8788 59.3437 39.4247 59.3437C38.9705 59.3437 38.5705 59.4583 38.2247 59.6875C37.883 59.9125 37.6142 60.2146 37.4184 60.5937C37.2267 60.9729 37.1309 61.3979 37.1309 61.8687ZM35.1872 61.8687C35.1872 61.2687 35.2934 60.7104 35.5059 60.1937C35.7184 59.6729 36.0163 59.2187 36.3997 58.8312C36.783 58.4437 37.233 58.1417 37.7497 57.925C38.2663 57.7083 38.8247 57.6 39.4247 57.6C40.033 57.6 40.5934 57.7083 41.1059 57.925C41.6226 58.1417 42.0705 58.4437 42.4497 58.8312C42.833 59.2187 43.1288 59.6729 43.3372 60.1937C43.5497 60.7104 43.6559 61.2687 43.6559 61.8687C43.6559 62.4729 43.5538 63.0354 43.3497 63.5562C43.1455 64.0729 42.8538 64.5271 42.4747 64.9187C42.0955 65.3062 41.6476 65.6083 41.1309 65.825C40.6142 66.0417 40.0455 66.15 39.4247 66.15C38.7913 66.15 38.2142 66.0417 37.6934 65.825C37.1767 65.6083 36.7309 65.3062 36.3559 64.9187C35.9809 64.5271 35.6913 64.0729 35.4872 63.5562C35.2872 63.0354 35.1872 62.4729 35.1872 61.8687ZM47.8583 57.6C48.3708 57.6 48.8187 57.6562 49.202 57.7687C49.5853 57.8812 49.8937 58 50.127 58.125C50.3603 58.25 50.502 58.3333 50.552 58.375L49.652 59.8812C49.5853 59.8312 49.4708 59.7583 49.3083 59.6625C49.1499 59.5667 48.9603 59.4812 48.7395 59.4062C48.5228 59.3312 48.2958 59.2937 48.0583 59.2937C47.7374 59.2937 47.477 59.3521 47.277 59.4687C47.0812 59.5812 46.9833 59.75 46.9833 59.975C46.9833 60.1292 47.0353 60.2687 47.1395 60.3937C47.2478 60.5146 47.4103 60.6312 47.627 60.7437C47.8478 60.8521 48.127 60.9708 48.4645 61.1C48.7728 61.2125 49.0624 61.3458 49.3333 61.5C49.6041 61.6542 49.8416 61.8375 50.0458 62.05C50.2541 62.2583 50.4187 62.5 50.5395 62.775C50.6603 63.05 50.7208 63.3625 50.7208 63.7125C50.7208 64.1292 50.6353 64.4917 50.4645 64.8C50.2937 65.1042 50.0603 65.3562 49.7645 65.5562C49.4728 65.7562 49.1395 65.9042 48.7645 66C48.3937 66.1 48.0083 66.15 47.6083 66.15C47.0416 66.15 46.5333 66.0854 46.0833 65.9562C45.6374 65.8271 45.277 65.6875 45.002 65.5375C44.727 65.3875 44.5624 65.2875 44.5083 65.2375L45.4395 63.6687C45.4895 63.7062 45.5853 63.7667 45.727 63.85C45.8728 63.9333 46.0499 64.0208 46.2583 64.1125C46.4666 64.2 46.6874 64.275 46.9208 64.3375C47.1583 64.4 47.3916 64.4312 47.6208 64.4312C48.0041 64.4312 48.2916 64.3583 48.4833 64.2125C48.6749 64.0625 48.7708 63.8667 48.7708 63.625C48.7708 63.4458 48.7103 63.2854 48.5895 63.1437C48.4687 63.0021 48.2874 62.8687 48.0458 62.7437C47.8041 62.6146 47.502 62.4792 47.1395 62.3375C46.777 62.1917 46.4374 62.0146 46.1208 61.8062C45.8083 61.5979 45.5541 61.3375 45.3583 61.025C45.1624 60.7125 45.0645 60.325 45.0645 59.8625C45.0645 59.4 45.1937 59 45.452 58.6625C45.7145 58.3208 46.0583 58.0583 46.4833 57.875C46.9124 57.6917 47.3708 57.6 47.8583 57.6ZM51.9841 57.75H54.9841C55.5133 57.75 55.9904 57.8437 56.4154 58.0312C56.8404 58.2146 57.1779 58.4958 57.4279 58.875C57.682 59.25 57.8091 59.7208 57.8091 60.2875C57.8091 60.85 57.682 61.3292 57.4279 61.725C57.1779 62.1167 56.8404 62.4167 56.4154 62.625C55.9904 62.8292 55.5133 62.9312 54.9841 62.9312H53.8529V66H51.9841V57.75ZM53.8529 61.4562H54.4654C54.7195 61.4562 54.9466 61.4187 55.1466 61.3437C55.3508 61.2687 55.5133 61.15 55.6341 60.9875C55.755 60.8208 55.8154 60.6021 55.8154 60.3312C55.8154 60.0562 55.755 59.8396 55.6341 59.6812C55.5133 59.5187 55.3508 59.4021 55.1466 59.3312C54.9466 59.2604 54.7195 59.225 54.4654 59.225H53.8529V61.4562ZM59.0746 57.75H60.9433V66H59.0746V57.75ZM63.952 59.3875H61.9833V57.75H67.7833V59.3875H65.8208V66H63.952V59.3875ZM70.671 57.75H72.5273L75.7835 66H73.7898L73.1898 64.3437H70.0148L69.4085 66H67.4085L70.671 57.75ZM70.6398 62.7062H72.571L71.6148 60H71.596L70.6398 62.7062ZM76.6183 57.75H78.4871V64.3625H81.4808V66H76.6183V57.75Z" fill="black"/>
<path d="M43.7639 133.33H44.6239V134.465H43.7639V133.33ZM43.7639 140.895H44.6239V142.03H43.7639V140.895ZM44.2589 134.28C44.6689 134.28 45.0272 134.325 45.3339 134.415C45.6405 134.505 45.8872 134.6 46.0739 134.7C46.2605 134.8 46.3739 134.867 46.4139 134.9L45.6939 136.105C45.6405 136.065 45.5489 136.007 45.4189 135.93C45.2922 135.853 45.1405 135.785 44.9639 135.725C44.7905 135.665 44.6089 135.635 44.4189 135.635C44.1622 135.635 43.9539 135.682 43.7939 135.775C43.6372 135.865 43.5589 136 43.5589 136.18C43.5589 136.303 43.6005 136.415 43.6839 136.515C43.7705 136.612 43.9005 136.705 44.0739 136.795C44.2505 136.882 44.4739 136.977 44.7439 137.08C44.9905 137.17 45.2222 137.277 45.4389 137.4C45.6555 137.523 45.8455 137.67 46.0089 137.84C46.1755 138.007 46.3072 138.2 46.4039 138.42C46.5005 138.64 46.5489 138.89 46.5489 139.17C46.5489 139.503 46.4805 139.793 46.3439 140.04C46.2072 140.283 46.0205 140.485 45.7839 140.645C45.5505 140.805 45.2839 140.923 44.9839 141C44.6872 141.08 44.3789 141.12 44.0589 141.12C43.6055 141.12 43.1989 141.068 42.8389 140.965C42.4822 140.862 42.1939 140.75 41.9739 140.63C41.7539 140.51 41.6222 140.43 41.5789 140.39L42.3239 139.135C42.3639 139.165 42.4405 139.213 42.5539 139.28C42.6705 139.347 42.8122 139.417 42.9789 139.49C43.1455 139.56 43.3222 139.62 43.5089 139.67C43.6989 139.72 43.8855 139.745 44.0689 139.745C44.3755 139.745 44.6055 139.687 44.7589 139.57C44.9122 139.45 44.9889 139.293 44.9889 139.1C44.9889 138.957 44.9405 138.828 44.8439 138.715C44.7472 138.602 44.6022 138.495 44.4089 138.395C44.2155 138.292 43.9739 138.183 43.6839 138.07C43.3939 137.953 43.1222 137.812 42.8689 137.645C42.6189 137.478 42.4155 137.27 42.2589 137.02C42.1022 136.77 42.0239 136.46 42.0239 136.09C42.0239 135.72 42.1272 135.4 42.3339 135.13C42.5439 134.857 42.8189 134.647 43.1589 134.5C43.5022 134.353 43.8689 134.28 44.2589 134.28ZM49.9296 135.55C49.7096 135.55 49.5146 135.603 49.3446 135.71C49.1779 135.813 49.0362 135.935 48.9196 136.075C48.8062 136.215 48.7196 136.343 48.6596 136.46C48.5996 136.573 48.5662 136.64 48.5596 136.66L47.2796 136.075C47.2862 136.032 47.3179 135.945 47.3746 135.815C47.4312 135.682 47.5212 135.528 47.6446 135.355C47.7679 135.182 47.9296 135.013 48.1296 134.85C48.3329 134.687 48.5829 134.552 48.8796 134.445C49.1762 134.335 49.5262 134.28 49.9296 134.28C50.3962 134.28 50.7829 134.347 51.0896 134.48C51.3996 134.613 51.6429 134.788 51.8196 135.005C51.9996 135.218 52.1279 135.45 52.2046 135.7C52.2812 135.95 52.3196 136.19 52.3196 136.42C52.3196 136.707 52.2612 136.985 52.1446 137.255C52.0312 137.522 51.8829 137.775 51.6996 138.015C51.5162 138.252 51.3196 138.47 51.1096 138.67C50.8996 138.867 50.6979 139.04 50.5046 139.19C50.3146 139.337 50.1529 139.453 50.0196 139.54C49.8862 139.627 49.8062 139.68 49.7796 139.7H52.2646V141H47.5296V139.815C47.5796 139.778 47.6929 139.697 47.8696 139.57C48.0462 139.443 48.2579 139.285 48.5046 139.095C48.7546 138.905 49.0129 138.697 49.2796 138.47C49.5496 138.24 49.7996 138.003 50.0296 137.76C50.2629 137.517 50.4529 137.278 50.5996 137.045C50.7462 136.812 50.8196 136.597 50.8196 136.4C50.8196 136.09 50.7412 135.872 50.5846 135.745C50.4312 135.615 50.2129 135.55 49.9296 135.55ZM55.6729 141.12C55.2396 141.12 54.8396 141.037 54.4729 140.87C54.1063 140.703 53.8113 140.473 53.5879 140.18C53.3646 139.883 53.2529 139.545 53.2529 139.165C53.2529 138.858 53.3029 138.595 53.4029 138.375C53.5063 138.155 53.6463 137.97 53.8229 137.82C54.0029 137.667 54.2013 137.54 54.4179 137.44C54.2546 137.347 54.1046 137.238 53.9679 137.115C53.8346 136.988 53.7279 136.837 53.6479 136.66C53.5713 136.483 53.5329 136.267 53.5329 136.01C53.5329 135.657 53.6296 135.352 53.8229 135.095C54.0163 134.835 54.2729 134.635 54.5929 134.495C54.9163 134.352 55.2729 134.28 55.6629 134.28C56.0596 134.28 56.4163 134.352 56.7329 134.495C57.0529 134.635 57.3046 134.835 57.4879 135.095C57.6746 135.352 57.7679 135.657 57.7679 136.01C57.7679 136.39 57.6863 136.688 57.5229 136.905C57.3596 137.118 57.1546 137.297 56.9079 137.44C57.1279 137.54 57.3246 137.667 57.4979 137.82C57.6746 137.97 57.8146 138.155 57.9179 138.375C58.0246 138.595 58.0779 138.858 58.0779 139.165C58.0779 139.545 57.9663 139.883 57.7429 140.18C57.5229 140.473 57.2296 140.703 56.8629 140.87C56.4996 141.037 56.1029 141.12 55.6729 141.12ZM55.6629 139.82C55.8229 139.82 55.9663 139.782 56.0929 139.705C56.2229 139.628 56.3263 139.527 56.4029 139.4C56.4829 139.27 56.5229 139.127 56.5229 138.97C56.5229 138.813 56.4829 138.67 56.4029 138.54C56.3263 138.41 56.2229 138.308 56.0929 138.235C55.9663 138.158 55.8229 138.12 55.6629 138.12C55.5029 138.12 55.3579 138.158 55.2279 138.235C55.1013 138.312 54.9979 138.415 54.9179 138.545C54.8413 138.672 54.8029 138.813 54.8029 138.97C54.8029 139.127 54.8413 139.27 54.9179 139.4C54.9979 139.527 55.1013 139.628 55.2279 139.705C55.3579 139.782 55.5029 139.82 55.6629 139.82ZM55.6679 136.97C55.8079 136.97 55.9346 136.937 56.0479 136.87C56.1646 136.8 56.2579 136.707 56.3279 136.59C56.3979 136.47 56.4329 136.34 56.4329 136.2C56.4329 136.06 56.3979 135.933 56.3279 135.82C56.2579 135.703 56.1646 135.61 56.0479 135.54C55.9346 135.47 55.8079 135.435 55.6679 135.435C55.5279 135.435 55.3996 135.47 55.2829 135.54C55.1663 135.61 55.0729 135.703 55.0029 135.82C54.9329 135.933 54.8979 136.06 54.8979 136.2C54.8979 136.34 54.9329 136.468 55.0029 136.585C55.0729 136.702 55.1663 136.795 55.2829 136.865C55.3996 136.935 55.5279 136.97 55.6679 136.97ZM58.8484 137.705C58.8484 137.132 58.9201 136.632 59.0634 136.205C59.2101 135.775 59.4084 135.418 59.6584 135.135C59.9117 134.848 60.1984 134.635 60.5184 134.495C60.8417 134.352 61.1801 134.28 61.5334 134.28C61.8867 134.28 62.2234 134.352 62.5434 134.495C62.8667 134.635 63.1534 134.848 63.4034 135.135C63.6534 135.418 63.8501 135.775 63.9934 136.205C64.1367 136.632 64.2084 137.132 64.2084 137.705C64.2084 138.315 64.1367 138.837 63.9934 139.27C63.8501 139.703 63.6534 140.057 63.4034 140.33C63.1534 140.6 62.8667 140.8 62.5434 140.93C62.2234 141.057 61.8867 141.12 61.5334 141.12C61.1801 141.12 60.8417 141.057 60.5184 140.93C60.1984 140.8 59.9117 140.6 59.6584 140.33C59.4084 140.057 59.2101 139.703 59.0634 139.27C58.9201 138.837 58.8484 138.315 58.8484 137.705ZM60.3484 137.705C60.3484 138.182 60.3967 138.575 60.4934 138.885C60.5901 139.195 60.7267 139.427 60.9034 139.58C61.0801 139.73 61.2901 139.805 61.5334 139.805C61.7767 139.805 61.9851 139.73 62.1584 139.58C62.3351 139.427 62.4701 139.195 62.5634 138.885C62.6601 138.572 62.7084 138.178 62.7084 137.705C62.7084 137.258 62.6601 136.878 62.5634 136.565C62.4701 136.252 62.3351 136.012 62.1584 135.845C61.9851 135.678 61.7767 135.595 61.5334 135.595C61.2901 135.595 61.0801 135.678 60.9034 135.845C60.7267 136.012 60.5901 136.252 60.4934 136.565C60.3967 136.878 60.3484 137.258 60.3484 137.705Z" fill="black"/>
</svg>
